<svg width="21" height="21" viewBox="0 0 21 21" fill="none" xmlns="http://www.w3.org/2000/svg">
<path d="M4.61035 8.53126C4.60926 7.75296 4.76223 6.98213 5.06044 6.26322C5.35865 5.54431 5.7962 4.89153 6.34787 4.34251C6.89953 3.79349 7.55441 3.35909 8.27475 3.06434C8.99509 2.7696 9.76664 2.62034 10.5449 2.62517C13.7925 2.64932 16.3902 5.34872 16.3902 8.6054V9.18751C16.3902 12.1255 17.0049 13.8304 17.5463 14.7622C17.6046 14.8618 17.6356 14.975 17.6362 15.0903C17.6368 15.2057 17.607 15.3192 17.5498 15.4194C17.4925 15.5196 17.4099 15.6029 17.3101 15.661C17.2104 15.719 17.0971 15.7497 16.9817 15.75H4.01813C3.90273 15.7497 3.78945 15.719 3.68972 15.6609C3.58998 15.6029 3.50732 15.5195 3.45007 15.4193C3.39283 15.3191 3.36302 15.2056 3.36366 15.0902C3.36429 14.9748 3.39536 14.8616 3.45371 14.7621C3.99538 13.8302 4.61035 12.1254 4.61035 9.18751L4.61035 8.53126Z" stroke="black" stroke-width="2" stroke-linecap="round" stroke-linejoin="round"/>
<path d="M7.875 15.75V16.4062C7.875 17.1024 8.15156 17.7701 8.64384 18.2624C9.13613 18.7547 9.80381 19.0312 10.5 19.0312C11.1962 19.0312 11.8639 18.7547 12.3562 18.2624C12.8484 17.7701 13.125 17.1024 13.125 16.4062V15.75" stroke="black" stroke-width="2" stroke-linecap="round" stroke-linejoin="round"/>
</svg>
