<svg width="28" height="28" viewBox="0 0 28 28" fill="none" xmlns="http://www.w3.org/2000/svg">
<path d="M8.3125 13.125C10.9704 13.125 13.125 10.9704 13.125 8.3125C13.125 5.65463 10.9704 3.5 8.3125 3.5C5.65463 3.5 3.5 5.65463 3.5 8.3125C3.5 10.9704 5.65463 13.125 8.3125 13.125Z" fill="black"/>
<path d="M19.6875 13.125C22.3454 13.125 24.5 10.9704 24.5 8.3125C24.5 5.65463 22.3454 3.5 19.6875 3.5C17.0296 3.5 14.875 5.65463 14.875 8.3125C14.875 10.9704 17.0296 13.125 19.6875 13.125Z" fill="black"/>
<path d="M8.3125 24.5C10.9704 24.5 13.125 22.3454 13.125 19.6875C13.125 17.0296 10.9704 14.875 8.3125 14.875C5.65463 14.875 3.5 17.0296 3.5 19.6875C3.5 22.3454 5.65463 24.5 8.3125 24.5Z" fill="black"/>
<path d="M19.6875 24.5C22.3454 24.5 24.5 22.3454 24.5 19.6875C24.5 17.0296 22.3454 14.875 19.6875 14.875C17.0296 14.875 14.875 17.0296 14.875 19.6875C14.875 22.3454 17.0296 24.5 19.6875 24.5Z" fill="black"/>
</svg>
