<svg width="32" height="32" viewBox="0 0 32 32" fill="none" xmlns="http://www.w3.org/2000/svg">
<path d="M24.0485 7.29958L14.861 2.10668C14.598 1.95906 14.3015 1.88153 13.9999 1.88153C13.6983 1.88153 13.4018 1.95906 13.1388 2.10668L3.95127 7.29958C3.68167 7.45229 3.45738 7.67373 3.30123 7.94135C3.14508 8.20897 3.06267 8.51319 3.06238 8.82303V19.177C3.06267 19.4869 3.14508 19.7911 3.30123 20.0587C3.45738 20.3263 3.68167 20.5478 3.95127 20.7005L13.1388 25.8934C13.4018 26.041 13.6983 26.1186 13.9999 26.1186C14.3015 26.1186 14.598 26.041 14.861 25.8934L24.0485 20.7005C24.3181 20.5478 24.5424 20.3263 24.6985 20.0587C24.8547 19.7911 24.9371 19.4869 24.9374 19.177V8.82303C24.9371 8.51319 24.8547 8.20897 24.6985 7.94135C24.5424 7.67373 24.3181 7.45229 24.0485 7.29958V7.29958ZM13.9999 17.9375C13.2211 17.9375 12.4598 17.7066 11.8123 17.2739C11.1648 16.8413 10.6601 16.2263 10.3621 15.5068C10.0641 14.7874 9.98611 13.9957 10.138 13.2319C10.29 12.4681 10.665 11.7665 11.2156 11.2158C11.7663 10.6651 12.4679 10.2901 13.2317 10.1382C13.9955 9.98626 14.7872 10.0642 15.5067 10.3623C16.2262 10.6603 16.8411 11.165 17.2738 11.8125C17.7064 12.46 17.9374 13.2213 17.9374 14C17.9362 15.044 17.521 16.0448 16.7828 16.783C16.0446 17.5211 15.0438 17.9363 13.9999 17.9375V17.9375Z" fill="black"/>
</svg>
