<svg width="28" height="28" viewBox="0 0 28 28" fill="none" xmlns="http://www.w3.org/2000/svg">
<path d="M14.0001 2.625C11.7504 2.625 9.55112 3.29213 7.68052 4.54203C5.80991 5.79193 4.35194 7.56847 3.491 9.64698C2.63005 11.7255 2.40479 14.0126 2.84369 16.2192C3.2826 18.4257 4.36597 20.4525 5.95679 22.0433C7.54761 23.6342 9.57444 24.7175 11.781 25.1564C13.9875 25.5953 16.2746 25.3701 18.3532 24.5091C20.4317 23.6482 22.2082 22.1902 23.4581 20.3196C24.708 18.449 25.3751 16.2498 25.3751 14C25.3717 10.9842 24.1722 8.09292 22.0397 5.96043C19.9072 3.82794 17.0159 2.62841 14.0001 2.625V2.625ZM14.0002 21C13.7406 21 13.4868 20.9231 13.271 20.7788C13.0552 20.6346 12.8869 20.4296 12.7876 20.1898C12.6883 19.95 12.6623 19.6861 12.7129 19.4315C12.7635 19.1769 12.8886 18.943 13.0721 18.7595C13.2557 18.5759 13.4895 18.4509 13.7441 18.4003C13.9987 18.3496 14.2626 18.3756 14.5025 18.4749C14.7423 18.5743 14.9473 18.7425 15.0915 18.9584C15.2357 19.1742 15.3127 19.428 15.3127 19.6875C15.3127 20.0356 15.1744 20.3695 14.9283 20.6156C14.6821 20.8618 14.3483 21 14.0002 21ZM14.8751 15.6526V15.7505C14.8751 15.9826 14.7829 16.2052 14.6189 16.3693C14.4548 16.5333 14.2322 16.6255 14.0001 16.6255C13.7681 16.6255 13.5455 16.5333 13.3814 16.3693C13.2173 16.2052 13.1251 15.9826 13.1251 15.7505V14.8755C13.1251 14.6435 13.2173 14.4209 13.3814 14.2568C13.5455 14.0927 13.7681 14.0005 14.0001 14.0005C14.4328 14.0005 14.8557 13.8722 15.2154 13.6319C15.5752 13.3915 15.8556 13.0499 16.0211 12.6502C16.1867 12.2504 16.23 11.8106 16.1456 11.3863C16.0612 10.9619 15.8529 10.5722 15.5469 10.2662C15.241 9.96031 14.8512 9.75197 14.4269 9.66757C14.0026 9.58316 13.5627 9.62648 13.163 9.79205C12.7633 9.95761 12.4217 10.238 12.1813 10.5977C11.9409 10.9575 11.8126 11.3804 11.8126 11.813C11.8126 12.0451 11.7204 12.2677 11.5564 12.4318C11.3923 12.5958 11.1697 12.688 10.9376 12.688C10.7056 12.688 10.483 12.5958 10.3189 12.4318C10.1548 12.2677 10.0626 12.0451 10.0626 11.813C10.0627 11.0718 10.272 10.3457 10.6665 9.71816C11.0609 9.09062 11.6245 8.58716 12.2923 8.26568C12.9602 7.9442 13.7052 7.81775 14.4418 7.90088C15.1783 7.98402 15.8764 8.27335 16.4558 8.73561C17.0352 9.19787 17.4723 9.81429 17.717 10.514C17.9616 11.2136 18.0038 11.9681 17.8387 12.6907C17.6736 13.4133 17.3078 14.0746 16.7836 14.5986C16.2593 15.1225 15.5978 15.4879 14.8751 15.6526Z" fill="black"/>
</svg>
