<svg width="28" height="28" viewBox="0 0 28 28" fill="none" xmlns="http://www.w3.org/2000/svg">
<path d="M25.368 23.186C23.7353 20.374 21.1206 18.2648 18.0268 17.2642C19.5089 16.3823 20.6606 15.0382 21.3049 13.4384C21.9491 11.8385 22.0504 10.0714 21.5931 8.40844C21.1357 6.74548 20.1451 5.27864 18.7734 4.23321C17.4017 3.18778 15.7247 2.62158 14 2.62158C12.2753 2.62158 10.5982 3.18778 9.22651 4.23321C7.85477 5.27864 6.86416 6.74548 6.40684 8.40844C5.94951 10.0714 6.05077 11.8385 6.69504 13.4384C7.33931 15.0382 8.49098 16.3823 9.97315 17.2642C6.87938 18.2648 4.26475 20.3739 2.63205 23.1858C2.55509 23.3188 2.51451 23.4698 2.5144 23.6234C2.51429 23.7771 2.55465 23.9281 2.63142 24.0612C2.70819 24.1943 2.81866 24.3048 2.95172 24.3817C3.08478 24.4586 3.23573 24.499 3.3894 24.499L24.6107 24.4992C24.7643 24.4993 24.9153 24.4588 25.0484 24.3819C25.1814 24.3051 25.2919 24.1945 25.3687 24.0614C25.4454 23.9283 25.4858 23.7773 25.4857 23.6236C25.4856 23.47 25.445 23.3191 25.368 23.1861L25.368 23.186Z" fill="black"/>
</svg>
