<svg width="28" height="28" viewBox="0 0 28 28" fill="none" xmlns="http://www.w3.org/2000/svg">
<path d="M14 2.625C11.7502 2.625 9.551 3.29213 7.68039 4.54203C5.80978 5.79193 4.35182 7.56847 3.49088 9.64698C2.62993 11.7255 2.40467 14.0126 2.84357 16.2192C3.28248 18.4257 4.36584 20.4525 5.95667 22.0433C7.54749 23.6342 9.57432 24.7175 11.7809 25.1564C13.9874 25.5953 16.2745 25.3701 18.353 24.5091C20.4315 23.6482 22.2081 22.1902 23.458 20.3196C24.7079 18.449 25.375 16.2498 25.375 14C25.3716 10.9842 24.1721 8.09291 22.0396 5.96042C19.9071 3.82793 17.0158 2.6284 14 2.625V2.625ZM13.125 8.75C13.125 8.51794 13.2172 8.29538 13.3813 8.13128C13.5454 7.96719 13.7679 7.875 14 7.875C14.2321 7.875 14.4546 7.96719 14.6187 8.13128C14.7828 8.29538 14.875 8.51794 14.875 8.75V14.875C14.875 15.1071 14.7828 15.3296 14.6187 15.4937C14.4546 15.6578 14.2321 15.75 14 15.75C13.7679 15.75 13.5454 15.6578 13.3813 15.4937C13.2172 15.3296 13.125 15.1071 13.125 14.875V8.75ZM14 20.125C13.7404 20.125 13.4867 20.048 13.2708 19.9038C13.055 19.7596 12.8868 19.5546 12.7874 19.3148C12.6881 19.0749 12.6621 18.811 12.7127 18.5564C12.7634 18.3018 12.8884 18.068 13.0719 17.8844C13.2555 17.7009 13.4893 17.5759 13.7439 17.5252C13.9985 17.4746 14.2624 17.5006 14.5023 17.5999C14.7421 17.6992 14.9471 17.8675 15.0913 18.0833C15.2355 18.2992 15.3125 18.5529 15.3125 18.8125C15.3125 19.1606 15.1742 19.4944 14.9281 19.7406C14.6819 19.9867 14.3481 20.125 14 20.125Z" fill="black"/>
</svg>
